<?xml version="1.0" encoding="UTF-8" standalone="no"?>
<svg
   xmlns:dc="http://purl.org/dc/elements/1.1/"
   xmlns:cc="http://creativecommons.org/ns#"
   xmlns:rdf="http://www.w3.org/1999/02/22-rdf-syntax-ns#"
   xmlns:svg="http://www.w3.org/2000/svg"
   xmlns="http://www.w3.org/2000/svg"
   xmlns:sodipodi="http://sodipodi.sourceforge.net/DTD/sodipodi-0.dtd"
   xmlns:inkscape="http://www.inkscape.org/namespaces/inkscape"
   version="1.1"
   id="Capa_1"
   x="0px"
   y="0px"
   viewBox="0 0 420.8 420.8"
   style="enable-background:new 0 0 420.8 420.8;"
   xml:space="preserve"
   sodipodi:docname="camera.svg"
   inkscape:version="1.0 (4035a4fb49, 2020-05-01)"><metadata
     id="metadata15"><rdf:RDF><cc:Work
         rdf:about=""><dc:format>image/svg+xml</dc:format><dc:type
           rdf:resource="http://purl.org/dc/dcmitype/StillImage" /></cc:Work></rdf:RDF></metadata><defs
     id="defs104" /><sodipodi:namedview
     inkscape:document-rotation="0"
     pagecolor="#ffffff"
     bordercolor="#666666"
     borderopacity="1"
     objecttolerance="10"
     gridtolerance="10"
     guidetolerance="10"
     inkscape:pageopacity="0"
     inkscape:pageshadow="2"
     inkscape:window-width="1920"
     inkscape:window-height="1017"
     id="namedview102"
     showgrid="false"
     inkscape:zoom="1.4142136"
     inkscape:cx="203.57275"
     inkscape:cy="147.86615"
     inkscape:window-x="-8"
     inkscape:window-y="1072"
     inkscape:window-maximized="1"
     inkscape:current-layer="Capa_1" /><g
     id="g69"
     transform="matrix(0.93605952,0,0,0.93605952,100.61501,-68.334419)">
	<g
   id="g67">
		<g
   id="g65">
			<path
   d="m 218.9219,197.70028 c -4.34703,-4.55403 -10.35007,-7.24505 -17.18112,-7.24505 h -34.36224 v -0.414 c 0,-5.17504 -2.07002,-10.14307 -5.58904,-13.4551 -3.51902,-3.51902 -8.28006,-5.58904 -13.45509,-5.58904 H 86.23397 c -5.382038,0 -10.143071,2.07002 -13.662096,5.58904 -3.519024,3.51903 -5.589039,8.28006 -5.589039,13.4551 v 0.414 H 32.827597 c -6.831047,0 -12.834089,2.69102 -17.18112,7.24505 -4.34703,4.34703 -7.2450502,10.55707 -7.2450502,17.18112 v 103.08672 c 0,6.83105 2.6910192,12.83409 7.2450502,17.18112 4.347031,4.34703 10.557074,7.24505 17.18112,7.24505 H 201.74078 c 6.83105,0 12.83409,-2.69102 17.18112,-7.24505 4.34703,-4.34703 7.24505,-10.55707 7.24505,-17.18112 V 214.8814 c 0,-6.83105 -2.69102,-12.83409 -7.24505,-17.18112 z m -3.51903,120.26784 h -0.207 c 0,3.72603 -1.44901,7.03805 -3.93303,9.52207 -2.48401,2.48401 -5.79604,3.93302 -9.52206,3.93302 H 32.827597 c -3.726026,0 -7.038049,-1.44901 -9.522066,-3.93302 -2.484017,-2.48402 -3.933027,-5.79604 -3.933027,-9.52207 V 214.8814 c 0,-3.72603 1.44901,-7.03805 3.933027,-9.52207 2.484017,-2.48401 5.79604,-3.93302 9.522066,-3.93302 h 39.951279 c 3.105022,0 5.589039,-2.48402 5.589039,-5.58904 v -6.00304 c 0,-2.27702 0.828006,-4.34703 2.277016,-5.79604 1.44901,-1.44901 3.519024,-2.27702 5.79604,-2.27702 h 61.893439 c 2.27701,0 4.34703,0.82801 5.79604,2.27702 1.44901,1.44901 2.27701,3.51902 2.27701,5.79604 v 6.00304 c 0,3.10502 2.48402,5.58904 5.58904,5.58904 h 39.95128 c 3.72603,0 7.03805,1.44901 9.52207,3.93302 2.48401,2.48402 3.93302,5.79604 3.93302,9.52207 z"
   id="path59"
   style="stroke-width:0.517504" />
			<path
   d="m 117.28419,215.50241 c -14.0761,0 -26.910191,5.79604 -36.018255,14.9041 -9.315065,9.31506 -14.904104,21.94215 -14.904104,36.01825 0,14.0761 5.796041,26.91019 14.904104,36.01825 9.315065,9.31507 21.942155,14.90411 36.018255,14.90411 14.0761,0 26.91019,-5.79605 36.01825,-14.90411 9.31507,-9.31506 14.9041,-21.94215 14.9041,-36.01825 0,-14.0761 -5.79604,-26.91019 -14.9041,-36.01825 -9.10806,-9.10806 -21.94215,-14.9041 -36.01825,-14.9041 z m 28.1522,79.28155 c -7.24505,7.03805 -17.18112,11.59208 -28.1522,11.59208 -10.97108,0 -20.90715,-4.55403 -28.1522,-11.59208 -7.245051,-7.24505 -11.592081,-17.18112 -11.592081,-28.1522 0,-10.97107 4.554032,-20.90714 11.592081,-28.15219 7.24505,-7.24506 17.18112,-11.59209 28.1522,-11.59209 10.97108,0 20.90715,4.55404 28.1522,11.59209 7.24505,7.24505 11.59208,17.18112 11.59208,28.15219 0.207,10.97108 -4.34703,20.90715 -11.59208,28.1522 z"
   id="path61"
   style="stroke-width:0.517504" />
			<circle
   cx="190.9767"
   cy="225.43848"
   id="circle63"
   r="10.143071"
   style="stroke-width:0.517504" />
		</g>
	</g>
</g><g
     id="g131"
     transform="matrix(0.77221385,0,0,0.77221385,12.713248,12.713248)"><path
       d="M 256,512 106.039,362.038 C 65.982,321.982 43.923,268.725 43.923,212.077 43.923,95.137 139.06,0 256,0 c 116.94,0 212.077,95.137 212.077,212.077 0,56.648 -22.06,109.905 -62.116,149.961 z M 256,30 C 155.602,30 73.923,111.68 73.923,212.077 c 0,48.634 18.939,94.358 53.329,128.748 L 256,469.573 384.748,340.825 c 34.39,-34.39 53.329,-80.114 53.329,-128.748 C 438.077,111.68 356.397,30 256,30 Z"
       id="path129" /></g><path
     style="fill:#000000;stroke-width:0.353553"
     d="M 158.25262,322.88746 C 123.37362,287.96493 105.04486,269.3606 102.57537,266.3731 85.833678,246.11963 75.310271,222.64032 71.494376,197.02672 69.293879,182.25624 69.705698,164.06065 72.564729,149.73468 83.31646,95.860194 123.9919,53.172686 177.02927,40.102646 c 17.93155,-4.418885 38.53777,-5.173347 56.66331,-2.074631 19.17658,3.278398 36.99116,10.280464 53.46857,21.015951 32.04046,20.875238 54.39505,54.460654 61.30543,92.104934 1.72922,9.41988 2.13726,14.27985 2.13726,25.45584 0,11.176 -0.40804,16.03596 -2.13726,25.45585 -4.44507,24.21452 -15.26859,46.79952 -31.59963,65.9377 -2.93651,3.44127 -105.93672,106.9499 -106.42457,106.9499 -0.10664,0 -23.59203,-23.42733 -52.18976,-52.06073 z m 137.84417,-71.408 c 6.21963,-2.21012 10.65598,-5.96034 13.5872,-11.48579 2.95708,-5.5742 2.71768,-0.7817 2.84861,-57.02497 0.0783,-33.64783 -0.005,-50.95388 -0.25566,-52.85623 -0.52391,-3.9821 -1.58022,-6.88802 -3.60332,-9.91281 -2.2715,-3.39617 -5.43836,-6.20985 -8.96132,-7.96193 -4.74308,-2.35886 -5.5875,-2.44152 -25.0139,-2.44844 l -17.23573,-0.006 -0.005,-1.14905 c -0.003,-0.63197 -0.2455,-2.16838 -0.53917,-3.41424 -1.70558,-7.235705 -7.97194,-12.640419 -15.64944,-13.497591 -2.02938,-0.226571 -14.37264,-0.317774 -33.20452,-0.245342 -29.84154,0.114778 -29.98468,0.118755 -32.29798,0.897033 -6.6666,2.242889 -11.34069,7.76961 -12.40609,14.66915 l -0.42311,2.74004 -16.99556,0.006 c -19.14245,0.007 -20.02151,0.0934 -24.77374,2.43619 -5.31484,2.62019 -9.49516,7.4431 -11.63711,13.42595 l -1.0908,3.04682 v 52.3259 c 0,49.80161 0.0314,52.42824 0.65042,54.44722 1.20975,3.94547 3.00352,6.87795 6.05545,9.8995 3.26215,3.22967 6.47583,5.12079 10.49865,6.178 2.53108,0.66518 4.62422,0.67998 85.67951,0.60608 77.11249,-0.0703 83.20637,-0.11886 84.77284,-0.6755 z"
     id="path252" /><path
     style="fill:#ffffff;stroke-width:0.353553"
     d="m 205.5786,217.94707 c -8.38166,-1.08973 -17.8008,-6.15542 -23.13363,-12.44146 -4.01232,-4.72949 -6.59863,-9.83805 -8.12704,-16.05277 -0.972,-3.9523 -1.07881,-11.67053 -0.2147,-15.51585 3.64009,-16.19862 16.38658,-27.70211 32.67796,-29.49129 16.07672,-1.76561 32.4454,8.35491 38.15103,23.58822 1.77154,4.72978 2.35975,8.07897 2.37459,13.52057 0.0142,5.19296 -0.65659,8.87963 -2.41545,13.27609 -6.24342,15.60609 -22.69104,25.27754 -39.31276,23.11649 z"
     id="path258" /><path
     id="path840"
     d="m 129.10396,241.23555 c -3.24873,-0.63914 -5.94261,-2.53179 -8.08592,-5.68097 l -1.59099,-2.33765 v -51.90289 c 0,-56.86604 -0.21143,-53.98671 4.2392,-57.73167 1.19277,-1.00365 3.35204,-2.15347 4.79837,-2.55516 1.5251,-0.42356 11.12285,-0.73199 22.84941,-0.73428 23.90787,-0.005 22.71757,0.40794 23.10993,-8.01083 0.50044,-10.73799 -0.747,-10.37815 35.97317,-10.37679 26.75981,0.001 29.82752,0.11941 32.05666,1.23744 3.25231,1.63119 4.22945,3.80141 4.24205,9.42158 0.009,3.90308 0.26652,4.8903 1.60527,6.148 1.54165,1.4483 2.31598,1.50549 23.21114,1.71425 l 21.61629,0.21596 3.00732,1.99131 c 1.89083,1.25202 3.50598,3.08965 4.3505,4.94975 1.27837,2.81571 1.34392,5.36677 1.3587,52.88072 0.011,35.4238 -0.21777,50.62035 -0.78779,52.3259 -0.94984,2.84202 -3.66666,5.95765 -6.6213,7.59327 -1.9387,1.07321 -9.03041,1.18328 -82.37794,1.27852 -44.14114,0.0573 -81.47047,-0.13458 -82.95407,-0.42646 z m 88.5647,-12.80104 c 15.47283,-2.51046 28.76412,-12.11787 35.33622,-25.54225 3.96077,-8.09039 5.09523,-12.94242 5.09523,-21.79209 0,-8.86846 -1.12993,-13.68259 -5.14495,-21.92031 -3.5957,-7.3774 -11.82274,-16.03947 -18.97682,-19.98027 -8.02659,-4.42142 -13.9025,-5.8355 -24.04163,-5.78579 -7.9587,0.039 -9.44562,0.25625 -14.9325,2.18162 -15.88789,5.57512 -28.10899,19.1512 -31.45984,34.94786 -1.71314,8.07612 -1.07275,18.47149 1.61379,26.1965 7.66686,22.0457 29.7667,35.38491 52.5105,31.69473 z m 67.07835,-77.51096 c 5.67935,-3.54069 5.68437,-12.95415 0.009,-16.51631 -3.22988,-2.02717 -8.99983,-1.6354 -11.62961,0.78961 -5.77261,5.32313 -4.22549,14.06464 2.92499,16.52681 3.08571,1.06251 6.16219,0.77944 8.69582,-0.80011 z"
     style="font-variation-settings:'wdth' 100, 'wght' 400;fill:#f9f9f9;stroke-width:7.70746" /><path
     id="path842"
     d="m 200.82375,216.7521 c -12.19976,-3.28092 -22.1422,-13.17817 -25.82138,-25.704 -1.74732,-5.94878 -1.48126,-15.58026 0.59273,-21.4569 4.35526,-12.34064 14.18495,-21.2375 26.73295,-24.19599 14.60562,-3.44362 30.49098,3.0881 38.98799,16.03102 15.81667,24.09245 -2.05691,56.63285 -30.97734,56.39695 -3.13791,-0.0256 -7.41964,-0.50758 -9.51495,-1.07108 z"
     style="font-variation-settings:'wdth' 100, 'wght' 400;fill:#f9f9f9;stroke-width:7.70746" /></svg>
