<?xml version="1.0" encoding="UTF-8" standalone="no"?>
<svg
   xmlns:dc="http://purl.org/dc/elements/1.1/"
   xmlns:cc="http://creativecommons.org/ns#"
   xmlns:rdf="http://www.w3.org/1999/02/22-rdf-syntax-ns#"
   xmlns:svg="http://www.w3.org/2000/svg"
   xmlns="http://www.w3.org/2000/svg"
   xmlns:xlink="http://www.w3.org/1999/xlink"
   xmlns:sodipodi="http://sodipodi.sourceforge.net/DTD/sodipodi-0.dtd"
   xmlns:inkscape="http://www.inkscape.org/namespaces/inkscape"
   version="1.1"
   id="Capa_1"
   x="0px"
   y="0px"
   viewBox="0 0 880.00003 220.79999"
   xml:space="preserve"
   sodipodi:docname="logo.svg"
   inkscape:version="1.0 (4035a4fb49, 2020-05-01)"
   width="880"
   height="220.79999"
   inkscape:export-filename="C:\uczelnia\PhotoMap\PhotoMap.Web\app\src\assets\logo.png"
   inkscape:export-xdpi="96.623344"
   inkscape:export-ydpi="96.623344"><defs
     id="defs104"><linearGradient
       inkscape:collect="always"
       id="linearGradient1206"><stop
         style="stop-color:#000000;stop-opacity:1;"
         offset="0"
         id="stop1202" /><stop
         style="stop-color:#000000;stop-opacity:0;"
         offset="1"
         id="stop1204" /></linearGradient><rect
       x="249.27503"
       y="69.087462"
       width="618.98632"
       height="182.0548"
       id="rect1190" /><radialGradient
       inkscape:collect="always"
       xlink:href="#linearGradient1206"
       id="radialGradient1210"
       cx="130.40546"
       cy="111.57233"
       fx="130.40546"
       fy="111.57233"
       r="71.844711"
       gradientTransform="matrix(1,0,0,1.2077962,0,-23.184302)"
       gradientUnits="userSpaceOnUse" /></defs><sodipodi:namedview
     inkscape:pagecheckerboard="true"
     inkscape:document-rotation="0"
     pagecolor="#ffffff"
     bordercolor="#666666"
     borderopacity="1"
     objecttolerance="10"
     gridtolerance="10"
     guidetolerance="10"
     inkscape:pageopacity="1"
     inkscape:pageshadow="2"
     inkscape:window-width="2560"
     inkscape:window-height="1017"
     id="namedview102"
     showgrid="false"
     inkscape:zoom="1.5181818"
     inkscape:cx="464.87565"
     inkscape:cy="152.77599"
     inkscape:window-x="1297"
     inkscape:window-y="-8"
     inkscape:window-maximized="1"
     inkscape:current-layer="Capa_1"
     inkscape:snap-global="false" /><g
     style="fill:#000000"
     id="g69"
     transform="matrix(0.47948655,0,0,0.47948655,74.283832,-28.802559)">
	<g
   style="fill:#000000"
   id="g67">
		<g
   style="fill:#000000"
   id="g65">
			<path
   d="m 218.9219,197.70028 c -4.34703,-4.55403 -10.35007,-7.24505 -17.18112,-7.24505 h -34.36224 v -0.414 c 0,-5.17504 -2.07002,-10.14307 -5.58904,-13.4551 -3.51902,-3.51902 -8.28006,-5.58904 -13.45509,-5.58904 H 86.23397 c -5.382038,0 -10.143071,2.07002 -13.662096,5.58904 -3.519024,3.51903 -5.589039,8.28006 -5.589039,13.4551 v 0.414 H 32.827597 c -6.831047,0 -12.834089,2.69102 -17.18112,7.24505 -4.34703,4.34703 -7.2450502,10.55707 -7.2450502,17.18112 v 103.08672 c 0,6.83105 2.6910192,12.83409 7.2450502,17.18112 4.347031,4.34703 10.557074,7.24505 17.18112,7.24505 H 201.74078 c 6.83105,0 12.83409,-2.69102 17.18112,-7.24505 4.34703,-4.34703 7.24505,-10.55707 7.24505,-17.18112 V 214.8814 c 0,-6.83105 -2.69102,-12.83409 -7.24505,-17.18112 z m -3.51903,120.26784 h -0.207 c 0,3.72603 -1.44901,7.03805 -3.93303,9.52207 -2.48401,2.48401 -5.79604,3.93302 -9.52206,3.93302 H 32.827597 c -3.726026,0 -7.038049,-1.44901 -9.522066,-3.93302 -2.484017,-2.48402 -3.933027,-5.79604 -3.933027,-9.52207 V 214.8814 c 0,-3.72603 1.44901,-7.03805 3.933027,-9.52207 2.484017,-2.48401 5.79604,-3.93302 9.522066,-3.93302 h 39.951279 c 3.105022,0 5.589039,-2.48402 5.589039,-5.58904 v -6.00304 c 0,-2.27702 0.828006,-4.34703 2.277016,-5.79604 1.44901,-1.44901 3.519024,-2.27702 5.79604,-2.27702 h 61.893439 c 2.27701,0 4.34703,0.82801 5.79604,2.27702 1.44901,1.44901 2.27701,3.51902 2.27701,5.79604 v 6.00304 c 0,3.10502 2.48402,5.58904 5.58904,5.58904 h 39.95128 c 3.72603,0 7.03805,1.44901 9.52207,3.93302 2.48401,2.48402 3.93302,5.79604 3.93302,9.52207 z"
   id="path59"
   style="stroke-width:0.517504;fill:#000000" />
			<path
   d="m 117.28419,215.50241 c -14.0761,0 -26.910191,5.79604 -36.018255,14.9041 -9.315065,9.31506 -14.904104,21.94215 -14.904104,36.01825 0,14.0761 5.796041,26.91019 14.904104,36.01825 9.315065,9.31507 21.942155,14.90411 36.018255,14.90411 14.0761,0 26.91019,-5.79605 36.01825,-14.90411 9.31507,-9.31506 14.9041,-21.94215 14.9041,-36.01825 0,-14.0761 -5.79604,-26.91019 -14.9041,-36.01825 -9.10806,-9.10806 -21.94215,-14.9041 -36.01825,-14.9041 z m 28.1522,79.28155 c -7.24505,7.03805 -17.18112,11.59208 -28.1522,11.59208 -10.97108,0 -20.90715,-4.55403 -28.1522,-11.59208 -7.245051,-7.24505 -11.592081,-17.18112 -11.592081,-28.1522 0,-10.97107 4.554032,-20.90714 11.592081,-28.15219 7.24505,-7.24506 17.18112,-11.59209 28.1522,-11.59209 10.97108,0 20.90715,4.55404 28.1522,11.59209 7.24505,7.24505 11.59208,17.18112 11.59208,28.15219 0.207,10.97108 -4.34703,20.90715 -11.59208,28.1522 z"
   id="path61"
   style="stroke-width:0.517504;fill:#000000" />
			<circle
   cx="190.9767"
   cy="225.43848"
   id="circle63"
   r="10.143071"
   style="stroke-width:0.517504;fill:#000000" />
		</g>
	</g>
</g><g
     style="fill:#000000"
     id="g131"
     transform="matrix(0.77221385,0,0,0.77221385,12.713248,12.713248)"><path
       d="M 152.55719,262.26656 75.741261,185.45012 C 55.222488,164.93186 43.923,137.65153 43.923,108.63419 43.923,48.732918 92.655918,0 152.55719,0 c 59.90127,0 108.63419,48.732918 108.63419,108.63419 0,29.01734 -11.3,56.29767 -31.81826,76.81593 z m 0,-246.899379 c -51.42781,0 -93.267009,41.839713 -93.267009,93.267009 0,24.91225 9.701302,48.33388 27.317214,65.9498 l 65.949795,65.94979 65.9498,-65.94979 c 17.61591,-17.61592 27.31721,-41.03755 27.31721,-65.9498 0,-51.427296 -41.83971,-93.267009 -93.26701,-93.267009 z"
       id="path129"
       style="stroke-width:0.512239;fill:#000000" /></g><path
     style="mix-blend-mode:darken;fill:#000000;stroke:url(#radialGradient1210);stroke-width:0;stroke-miterlimit:4;stroke-dasharray:none;stroke-opacity:1"
     d="M 100.44872,175.64872 C 82.582315,157.76003 76.465186,144.25997 75.200216,142.72965 66.624462,132.35503 51.34661,119.0651 49.391958,105.94481 48.264777,98.378791 54.382001,85.073588 55.846509,77.735262 61.353969,50.138629 82.189531,28.272406 109.35735,21.577417 c 9.18525,-2.263527 28.97651,-0.06612 38.26112,1.521165 9.823,1.679324 19.59611,3.28641 28.03649,8.785549 16.41239,10.693119 37.75196,72.462689 29.00432,90.008019 -1.75618,3.5224 4.16672,-32.882482 4.16672,-27.1577 0,5.72478 2.12077,-47.128778 -1.11293,9.74612 -0.71585,12.59055 -9.76816,29.25283 -18.13356,39.05616 -1.50419,1.76275 -56.21194,60.06422 -56.46183,60.06422 -0.0546,0 -18.02008,-13.28507 -32.66896,-27.95223 z m 73.88079,-40.54818 c 3.18594,-1.13211 5.45841,-3.05312 6.9599,-5.88347 1.51473,-2.85532 1.3921,-0.40042 1.45917,-29.21043 0.0401,-17.235746 -0.003,-26.100586 -0.13096,-27.075044 -0.26837,-2.039789 -0.80945,-3.528316 -1.84576,-5.077732 -1.16356,-1.739652 -2.78575,-3.18093 -4.59035,-4.078414 -2.42959,-1.208301 -2.86213,-1.250643 -12.8131,-1.254188 l -8.82882,-0.0031 -0.003,-0.588589 c -0.002,-0.32372 -0.12576,-1.110729 -0.27619,-1.748908 -0.87366,-3.706413 -4.08354,-6.47492 -8.01625,-6.913997 -1.03953,-0.116059 -7.36224,-0.162777 -17.00867,-0.125674 -15.28601,0.05879 -15.35933,0.06083 -16.54429,0.459495 -3.4149,1.148896 -5.80915,3.979901 -6.35489,7.514117 l -0.21674,1.403556 -8.70579,0.0031 c -9.805517,0.0036 -10.255806,0.04784 -12.690086,1.247913 -2.72247,1.342164 -4.863794,3.812649 -5.960986,6.8773 l -0.55875,1.560701 v 26.803387 c 0,25.510347 0.01608,26.855807 0.33317,27.890007 0.619682,2.02103 1.538522,3.52316 3.10184,5.07091 1.671002,1.65437 3.317175,2.62307 5.377822,3.16462 1.296519,0.34073 2.368708,0.34831 43.88842,0.31046 39.50005,-0.036 42.62158,-0.0609 43.42399,-0.34602 z"
     id="path252"
     sodipodi:nodetypes="scssssssssssscsscsscccsssssccsscssssscc" /><path
     style="fill:#000000;stroke-width:0.181104"
     d="m 128.05032,117.84209 c -4.29342,-0.5582 -9.11827,-3.15304 -11.84996,-6.373 -2.05527,-2.42263 -3.38008,-5.03944 -4.16299,-8.22286 -0.4979,-2.02453 -0.55261,-5.978108 -0.10998,-7.947833 1.8646,-8.297571 8.39385,-14.190111 16.73894,-15.1066 8.23513,-0.904415 16.61981,4.279714 19.54246,12.082816 0.90745,2.422779 1.20876,4.138366 1.21636,6.925768 0.007,2.660039 -0.33633,4.548499 -1.23729,6.800539 -3.19813,7.99405 -11.62324,12.94815 -20.13754,11.84117 z"
     id="path258" /><metadata
     id="metadata1149"><rdf:RDF><cc:Work
         rdf:about=""><dc:title></dc:title><dc:format>image/svg+xml</dc:format><dc:type
           rdf:resource="http://purl.org/dc/dcmitype/StillImage" /></cc:Work></rdf:RDF></metadata><metadata
     id="metadata851"><rdf:RDF><cc:Work
         rdf:about=""><dc:title /></cc:Work></rdf:RDF></metadata><text
     xml:space="preserve"
     id="text1188"
     style="font-style:normal;font-weight:normal;font-size:40px;line-height:1.25;font-family:sans-serif;white-space:pre;shape-inside:url(#rect1190);fill:#000000;fill-opacity:1;stroke:none;"
     transform="matrix(2.1362902,0,0,1.8182101,-241.31851,-86.362193)"><tspan
       x="249.27539"
       y="122.99855"><tspan
         style="font-style:normal;font-variant:normal;font-weight:normal;font-stretch:normal;font-size:58.6658px;font-family:Bahnschrift;-inkscape-font-specification:'Bahnschrift, @wght=400,wdth=100.0';font-variant-ligatures:normal;font-variant-caps:normal;font-variant-numeric:normal;font-variant-east-asian:normal;font-variation-settings:'wdth' 100, 'wght' 400;fill:#000000">PhotoMap</tspan></tspan></text><path
     style="font-variation-settings:'wdth' 100, 'wght' 400;opacity:1;fill:#000000;fill-opacity:1;stroke:none;stroke-width:5.07677;stroke-miterlimit:4;stroke-dasharray:none;stroke-dashoffset:0;stroke-opacity:1"
     d="m 302.40777,119.19784 c 0.11531,-9.79919 0.16087,-26.724894 0.10123,-37.612681 l -0.10843,-19.795976 18.74726,0.03224 c 14.38736,0.02474 19.6147,0.192445 22.47719,0.721122 9.43754,1.743033 16.4845,7.834783 18.70442,16.169038 0.83059,3.118306 0.9603,8.325492 0.28251,11.341365 -1.79926,8.005959 -8.66212,14.501242 -17.60373,16.660872 -2.32634,0.56187 -6.10616,0.74297 -16.85493,0.80755 l -13.85608,0.0832 0.0808,14.67118 0.0808,14.67119 -6.13041,0.0338 -6.1304,0.0338 z M 343.3481,96.810485 c 5.69107,-2.623024 8.54161,-8.663885 7.15502,-15.162904 -0.86516,-4.055014 -2.9538,-6.760486 -6.58696,-8.532269 l -3.03563,-1.480389 -13.15922,-0.239867 -13.15921,-0.239866 0.0734,13.31344 0.0734,13.31344 3.61058,0.161443 c 1.98582,0.08879 7.90699,0.111082 13.15816,0.04953 8.86328,-0.103893 9.71408,-0.188651 11.87052,-1.182557 z"
     id="path1228" /><path
     style="font-variation-settings:'wdth' 100, 'wght' 400;opacity:1;fill:#000000;fill-opacity:1;stroke:none;stroke-width:5.07677;stroke-miterlimit:4;stroke-dasharray:none;stroke-dashoffset:0;stroke-opacity:1"
     d="m 302.40604,118.77224 c 0.11442,-10.03326 0.15999,-26.958969 0.10128,-37.612678 l -0.10675,-19.370379 18.74726,0.03224 c 14.38736,0.02474 19.6147,0.192445 22.47719,0.721122 9.43754,1.743033 16.4845,7.834783 18.70442,16.169038 0.83059,3.118306 0.9603,8.325492 0.28251,11.341365 -1.79926,8.005959 -8.66212,14.501242 -17.60373,16.660872 -2.32634,0.56187 -6.10616,0.74297 -16.85493,0.80755 l -13.85608,0.0832 0.0808,14.67118 0.0808,14.67119 -6.13045,0.0338 -6.13045,0.0338 z M 343.3481,96.810485 c 2.98859,-1.377446 5.04099,-3.407018 6.18129,-6.112534 2.01711,-4.785845 1.61751,-9.909934 -1.08376,-13.897229 -1.14118,-1.68448 -2.21045,-2.554497 -4.52947,-3.68541 l -3.03563,-1.480389 -13.15922,-0.239867 -13.15921,-0.239866 0.0734,13.31344 0.0734,13.31344 3.61058,0.161443 c 1.98582,0.08879 7.90699,0.111082 13.15816,0.04953 8.86328,-0.103893 9.71408,-0.188651 11.87052,-1.182557 z"
     id="path1230" /><path
     style="font-variation-settings:'wdth' 100, 'wght' 400;opacity:1;fill:#000000;fill-opacity:1;stroke:none;stroke-width:5.07677;stroke-miterlimit:4;stroke-dasharray:none;stroke-dashoffset:0;stroke-opacity:1"
     d="m 302.40212,118.07357 c 0.11234,-10.41754 0.15794,-27.34325 0.10135,-37.612686 l -0.1029,-18.671701 18.74726,0.03224 c 14.38736,0.02474 19.6147,0.192445 22.47719,0.721122 9.43754,1.743033 16.4845,7.834783 18.70442,16.169038 0.83059,3.118306 0.9603,8.325492 0.28251,11.341365 -1.79926,8.005959 -8.66212,14.501242 -17.60373,16.660872 -2.32634,0.56187 -6.10616,0.74297 -16.85493,0.80755 l -13.85608,0.0832 0.0808,14.67118 0.0808,14.67119 -6.13052,0.0338 -6.13052,0.0338 z m 40.71359,-21.174186 c 3.09546,-1.424256 4.90389,-3.180767 6.34041,-6.158362 1.06555,-2.208654 1.27772,-3.255585 1.24774,-6.156896 -0.0594,-5.745055 -2.54492,-9.689028 -7.48577,-11.878059 -2.1766,-0.96434 -3.24248,-1.053289 -15.49668,-1.293222 l -13.15931,-0.257655 0.0734,13.314196 0.0734,13.314195 3.84346,0.161408 c 2.1139,0.08877 8.03505,0.106263 13.1581,0.03886 8.28819,-0.109038 9.54504,-0.228544 11.4053,-1.08447 z"
     id="path1232" /></svg>
